<?xml version="1.0"?>
<svg xmlns="http://www.w3.org/2000/svg" xmlns:xlink="http://www.w3.org/1999/xlink" version="1.1" id="Capa_1" x="0px" y="0px" viewBox="0 0 512 512" style="enable-background:new 0 0 512 512;" xml:space="preserve" width="512px" height="512px"><g><g>
	<g>
		<path d="M256,185.192c-78.075,0-142.096,63.717-142.706,142.162c0,41.319,18.16,80.58,49.827,107.727l21.27-24.81    c-24.418-20.932-38.416-51.146-38.416-82.786c0.474-60.438,49.827-109.612,110.026-109.612    c60.367,0,109.481,49.114,109.481,109.481c0,32.185-13.96,62.366-38.286,82.808l21.019,25.023    c31.739-26.668,49.947-65.966,49.947-107.83C398.162,248.963,334.39,185.192,256,185.192z" data-original="#000000" class="active-path" data-old_color="#000000" fill="#FFFFFF"/>
	</g>
</g><g>
	<g>
		<path d="M435.2,406.332H76.8c-9.025,0-16.34,7.315-16.34,16.34c0,9.025,7.315,16.34,16.34,16.34h358.4    c9.031,0,16.34-7.315,16.34-16.34C451.54,413.647,444.225,406.332,435.2,406.332z" data-original="#000000" class="active-path" data-old_color="#000000" fill="#FFFFFF"/>
	</g>
</g><g>
	<g>
		<rect x="239.66" y="72.987" width="32.681" height="84.426" data-original="#000000" class="active-path" data-old_color="#000000" fill="#FFFFFF"/>
	</g>
</g><g>
	<g>
		<rect y="312.647" width="84.97" height="32.681" data-original="#000000" class="active-path" data-old_color="#000000" fill="#FFFFFF"/>
	</g>
</g><g>
	<g>
		<rect x="427.03" y="312.647" width="84.97" height="32.681" data-original="#000000" class="active-path" data-old_color="#000000" fill="#FFFFFF"/>
	</g>
</g><g>
	<g>
		
			<rect x="364.503" y="161.232" transform="matrix(0.7071 -0.7071 0.7071 0.7071 -6.3921 339.7082)" width="84.73" height="32.675" data-original="#000000" class="active-path" data-old_color="#000000" fill="#FFFFFF"/>
	</g>
</g><g>
	<g>
		<rect x="88.781" y="135.227" transform="matrix(0.7071 -0.7071 0.7071 0.7071 -94.788 126.3456)" width="32.675" height="84.73" data-original="#000000" class="active-path" data-old_color="#000000" fill="#FFFFFF"/>
	</g>
</g></g> </svg>
